<svg width="199" height="49" viewBox="0 0 199 49" fill="none" xmlns="http://www.w3.org/2000/svg">
<path d="M10.764 38.663C7.852 38.663 5.564 38.052 3.9 36.83C2.262 35.582 1.404 33.866 1.326 31.682H6.201C6.279 32.41 6.682 33.073 7.41 33.671C8.138 34.269 9.282 34.568 10.842 34.568C12.142 34.568 13.169 34.334 13.923 33.866C14.703 33.398 15.093 32.761 15.093 31.955C15.093 31.253 14.794 30.694 14.196 30.278C13.624 29.862 12.636 29.589 11.232 29.459L9.36 29.264C6.994 29.004 5.174 28.328 3.9 27.236C2.626 26.144 1.989 24.688 1.989 22.868C1.989 21.412 2.353 20.19 3.081 19.202C3.809 18.214 4.81 17.473 6.084 16.979C7.384 16.459 8.866 16.199 10.53 16.199C13.13 16.199 15.236 16.771 16.848 17.915C18.46 19.059 19.305 20.736 19.383 22.946H14.508C14.456 22.218 14.092 21.594 13.416 21.074C12.74 20.554 11.765 20.294 10.491 20.294C9.347 20.294 8.463 20.515 7.839 20.957C7.215 21.399 6.903 21.971 6.903 22.673C6.903 23.349 7.15 23.869 7.644 24.233C8.164 24.597 8.996 24.844 10.14 24.974L12.012 25.169C14.508 25.429 16.458 26.118 17.862 27.236C19.292 28.354 20.007 29.862 20.007 31.76C20.007 33.164 19.617 34.386 18.837 35.426C18.083 36.44 17.017 37.233 15.639 37.805C14.261 38.377 12.636 38.663 10.764 38.663ZM24.4853 45.8V16.823H28.7753V25.949L28.1123 25.91C28.2163 23.752 28.6583 21.945 29.4383 20.489C30.2443 19.033 31.3103 17.954 32.6363 17.252C33.9623 16.524 35.4443 16.16 37.0823 16.16C38.5903 16.16 39.9423 16.433 41.1383 16.979C42.3603 17.525 43.4003 18.292 44.2583 19.28C45.1423 20.268 45.8183 21.425 46.2863 22.751C46.7543 24.051 46.9883 25.455 46.9883 26.963V27.782C46.9883 29.316 46.7543 30.746 46.2863 32.072C45.8443 33.372 45.1813 34.529 44.2973 35.543C43.4393 36.531 42.3993 37.311 41.1773 37.883C39.9553 38.429 38.5903 38.702 37.0823 38.702C35.4963 38.702 34.0403 38.377 32.7143 37.727C31.4143 37.051 30.3613 36.024 29.5553 34.646C28.7493 33.242 28.2943 31.435 28.1903 29.225L29.9063 31.838V45.8H24.4853ZM35.7173 34.139C36.8873 34.139 37.9013 33.853 38.7593 33.281C39.6433 32.709 40.3323 31.916 40.8263 30.902C41.3203 29.862 41.5673 28.692 41.5673 27.392C41.5673 26.04 41.3203 24.87 40.8263 23.882C40.3323 22.894 39.6433 22.127 38.7593 21.581C37.9013 21.009 36.8873 20.723 35.7173 20.723C34.6513 20.723 33.6633 20.957 32.7533 21.425C31.8693 21.893 31.1413 22.582 30.5693 23.492C30.0233 24.402 29.7503 25.494 29.7503 26.768V28.328C29.7503 29.55 30.0363 30.59 30.6083 31.448C31.1803 32.306 31.9213 32.969 32.8313 33.437C33.7413 33.905 34.7033 34.139 35.7173 34.139ZM61.9338 38.741C60.0618 38.741 58.4108 38.442 56.9808 37.844C55.5508 37.246 54.3418 36.44 53.3538 35.426C52.3658 34.386 51.6118 33.216 51.0918 31.916C50.5978 30.616 50.3508 29.264 50.3508 27.86V27.041C50.3508 25.585 50.6108 24.207 51.1308 22.907C51.6768 21.581 52.4438 20.411 53.4318 19.397C54.4458 18.357 55.6678 17.551 57.0978 16.979C58.5278 16.381 60.1398 16.082 61.9338 16.082C63.7278 16.082 65.3398 16.381 66.7698 16.979C68.1998 17.551 69.4088 18.357 70.3968 19.397C71.4108 20.411 72.1778 21.581 72.6978 22.907C73.2178 24.207 73.4778 25.585 73.4778 27.041V27.86C73.4778 29.264 73.2178 30.616 72.6978 31.916C72.2038 33.216 71.4628 34.386 70.4748 35.426C69.4868 36.44 68.2778 37.246 66.8478 37.844C65.4178 38.442 63.7798 38.741 61.9338 38.741ZM61.9338 34.1C63.2598 34.1 64.3778 33.814 65.2878 33.242C66.1978 32.644 66.8868 31.851 67.3548 30.863C67.8228 29.849 68.0568 28.705 68.0568 27.431C68.0568 26.131 67.8098 24.987 67.3158 23.999C66.8478 22.985 66.1458 22.192 65.2098 21.62C64.2998 21.022 63.2078 20.723 61.9338 20.723C60.6598 20.723 59.5548 21.022 58.6188 21.62C57.7088 22.192 57.0068 22.985 56.5128 23.999C56.0188 24.987 55.7718 26.131 55.7718 27.431C55.7718 28.705 56.0058 29.849 56.4738 30.863C56.9678 31.851 57.6698 32.644 58.5798 33.242C59.4898 33.814 60.6078 34.1 61.9338 34.1ZM87.4286 38.273C85.4786 38.273 83.8666 38.026 82.5926 37.532C81.3446 37.012 80.4086 36.154 79.7846 34.958C79.1606 33.736 78.8486 32.098 78.8486 30.044L78.8876 10.856H83.9576L83.9186 30.395C83.9186 31.435 84.1916 32.241 84.7376 32.813C85.3096 33.359 86.1156 33.632 87.1556 33.632H90.4706V38.273H87.4286ZM75.4946 20.801V16.823H90.4706V20.801H75.4946ZM95.5275 38V16.316C95.5275 13.898 96.1905 12.117 97.5165 10.973C98.8685 9.803 100.857 9.218 103.483 9.218H106.135V13.391H103.093C102.287 13.391 101.663 13.612 101.221 14.054C100.805 14.47 100.597 15.068 100.597 15.848V38H95.5275ZM92.8755 21.152V17.174H106.486V21.152H92.8755ZM119.939 38.741C118.067 38.741 116.416 38.442 114.986 37.844C113.556 37.246 112.347 36.44 111.359 35.426C110.371 34.386 109.617 33.216 109.097 31.916C108.603 30.616 108.356 29.264 108.356 27.86V27.041C108.356 25.585 108.616 24.207 109.136 22.907C109.682 21.581 110.449 20.411 111.437 19.397C112.451 18.357 113.673 17.551 115.103 16.979C116.533 16.381 118.145 16.082 119.939 16.082C121.733 16.082 123.345 16.381 124.775 16.979C126.205 17.551 127.414 18.357 128.402 19.397C129.416 20.411 130.183 21.581 130.703 22.907C131.223 24.207 131.483 25.585 131.483 27.041V27.86C131.483 29.264 131.223 30.616 130.703 31.916C130.209 33.216 129.468 34.386 128.48 35.426C127.492 36.44 126.283 37.246 124.853 37.844C123.423 38.442 121.785 38.741 119.939 38.741ZM119.939 34.1C121.265 34.1 122.383 33.814 123.293 33.242C124.203 32.644 124.892 31.851 125.36 30.863C125.828 29.849 126.062 28.705 126.062 27.431C126.062 26.131 125.815 24.987 125.321 23.999C124.853 22.985 124.151 22.192 123.215 21.62C122.305 21.022 121.213 20.723 119.939 20.723C118.665 20.723 117.56 21.022 116.624 21.62C115.714 22.192 115.012 22.985 114.518 23.999C114.024 24.987 113.777 26.131 113.777 27.431C113.777 28.705 114.011 29.849 114.479 30.863C114.973 31.851 115.675 32.644 116.585 33.242C117.495 33.814 118.613 34.1 119.939 34.1ZM136.229 38V16.823H140.519V25.793H140.402C140.402 22.751 141.052 20.45 142.352 18.89C143.652 17.33 145.563 16.55 148.085 16.55H148.865V21.269H147.383C145.563 21.269 144.146 21.763 143.132 22.751C142.144 23.713 141.65 25.117 141.65 26.963V38H136.229ZM152.492 38V16.823H156.782V25.91H156.392C156.392 23.778 156.665 21.997 157.211 20.567C157.757 19.111 158.563 18.019 159.629 17.291C160.721 16.537 162.073 16.16 163.685 16.16H163.919C165.557 16.16 166.909 16.537 167.975 17.291C169.067 18.019 169.873 19.111 170.393 20.567C170.939 21.997 171.212 23.778 171.212 25.91H169.847C169.847 23.778 170.12 21.997 170.666 20.567C171.238 19.111 172.057 18.019 173.123 17.291C174.215 16.537 175.567 16.16 177.179 16.16H177.413C179.051 16.16 180.416 16.537 181.508 17.291C182.6 18.019 183.419 19.111 183.965 20.567C184.537 21.997 184.823 23.778 184.823 25.91V38H179.402V25.403C179.402 24.077 179.064 23.024 178.388 22.244C177.712 21.438 176.75 21.035 175.502 21.035C174.254 21.035 173.253 21.451 172.499 22.283C171.745 23.089 171.368 24.181 171.368 25.559V38H165.947V25.403C165.947 24.077 165.609 23.024 164.933 22.244C164.257 21.438 163.295 21.035 162.047 21.035C160.799 21.035 159.798 21.451 159.044 22.283C158.29 23.089 157.913 24.181 157.913 25.559V38H152.492ZM189.758 38V31.76H195.842V38H189.758Z" fill="white"/>
</svg>
